name C:\Users\u0101727\Documents\MyRepositories\upper-imu-dc\Results\main_tracking\Case_52\kinematics.mot
datacolumns 10
datarows 56
range 1.37000000 1.92000000
endheader 
time	clav_prot	clav_elev	scapula_abduction	scapula_elevation	scapula_upward_rot	scapula_winging	plane_elv	shoulder_elv	axial_rot	
          1.37000000	        -23.98458275	         15.69113558	        -11.87127794	          6.69996228	         30.00074959	         -1.11087654	          9.28259082	         -0.00304532	         30.97671063	
          1.38000000	        -24.07783803	         15.77717860	        -12.01878809	          6.73523406	         30.09857657	         -1.13981108	         10.27633834	         -0.01550455	         30.05464484	
          1.39000000	        -24.15054967	         15.84944679	        -12.12779314	          6.76406670	         30.18611819	         -1.16544556	         11.25481328	         -0.01810629	         29.13964002	
          1.40000000	        -24.20581724	         15.90922652	        -12.20427738	          6.78705066	         30.26406895	         -1.18802254	         12.22630615	         -0.01180346	         28.22570734	
          1.41000000	        -24.24668736	         15.95803302	        -12.25407217	          6.80488474	         30.33337874	         -1.20788479	         13.19856998	          0.00257698	         27.30735550	
          1.42000000	        -24.27605648	         15.99748039	        -12.28269156	          6.81831668	         30.39513099	         -1.22542578	         14.17840729	          0.02429403	         26.37997397	
          1.43000000	        -24.29659503	         16.02917998	        -12.29520288	          6.82809661	         30.45044766	         -1.24105084	         15.17128146	          0.05264956	         25.44018888	
          1.44000000	        -24.31068871	         16.05466099	        -12.29612529	          6.83494054	         30.50041568	         -1.25514785	         16.18096252	          0.08694640	         24.48618747	
          1.45000000	        -24.32039698	         16.07531165	        -12.28935807	          6.83950295	         30.54603253	         -1.26806648	         17.20924943	          0.12645267	         23.51797063	
          1.46000000	        -24.32743146	         16.09234226	        -12.27814480	          6.84235954	         30.58817047	         -1.28010531	         18.25582020	          0.17037770	         22.53747891	
          1.47000000	        -24.33315551	         16.10676974	        -12.26507605	          6.84400003	         30.62755902	         -1.29150604	         19.31823691	          0.21786214	         21.54855987	
          1.48000000	        -24.33860130	         16.11942025	        -12.25212442	          6.84482960	         30.66478227	         -1.30245312	         20.39209719	          0.26798296	         20.55678038	
          1.49000000	        -24.34449999	         16.13094506	        -12.24070335	          6.84517642	         30.70028749	         -1.31307737	         21.47130034	          0.31977150	         19.56911290	
          1.50000000	        -24.35132063	         16.14184464	        -12.23174136	          6.84530306	         30.73440152	         -1.32346202	         22.54839003	          0.37224077	         18.59353702	
          1.51000000	        -24.35931435	         16.15249790	        -12.22576563	          6.84542009	         30.76735180	         -1.33365042	         23.61493888	          0.42441815	         17.63859970	
          1.52000000	        -24.36856122	         16.16319389	        -12.22299023	          6.84570094	         30.79928977	         -1.34365421	         24.66194433	          0.47537892	         16.71297494	
          1.53000000	        -24.37901627	         16.17416282	        -12.22340287	          6.84629634	         30.83031392	         -1.35346144	         25.68020716	          0.52427713	         15.82506065	
          1.54000000	        -24.39055112	         16.18560246	        -12.22684282	          6.84734642	         30.86048971	         -1.36304386	         26.66066678	          0.57037087	         14.98264436	
          1.55000000	        -24.40298781	         16.19769655	        -12.23306352	          6.84898854	         30.88986445	         -1.37236288	         27.59467366	          0.61304016	         14.19265882	
          1.56000000	        -24.41612355	         16.21062382	        -12.24177708	          6.85136019	         30.91847618	         -1.38137407	         28.47418921	          0.65179671	         13.46103458	
          1.57000000	        -24.42974690	         16.22455782	        -12.25268160	          6.85459710	         30.94635676	         -1.39003020	         29.29191350	          0.68628550	         12.79264410	
          1.58000000	        -24.44364690	         16.23965970	        -12.26547469	          6.85882750	         30.97353044	         -1.39828317	         30.04134835	          0.71627906	         12.19132396	
          1.59000000	        -24.45761734	         16.25606634	        -12.27985749	          6.86416415	         31.00000901	         -1.40608501	         30.71680598	          0.74166606	         11.65995884	
          1.60000000	        -24.47145808	         16.27387655	        -12.29553362	          6.87069554	         31.02578522	         -1.41338826	         31.31337447	          0.76243577	         11.20061102	
          1.61000000	        -24.48497539	         16.29313841	        -12.31220726	          6.87847802	         31.05082576	         -1.42014589	         31.82685057	          0.77866016	         10.81467997	
          1.62000000	        -24.49798245	         16.31384005	        -12.32958302	          6.88753040	         31.07506504	         -1.42631102	         32.25365033	          0.79047507	         10.50307798	
          1.63000000	        -24.51029982	         16.33590501	        -12.34736792	          6.89783150	         31.09840023	         -1.43183627	         32.59070798	          0.79806195	         10.26640969	
          1.64000000	        -24.52175461	         16.35919073	        -12.36527207	          6.90932002	         31.12068704	         -1.43667262	         32.83537343	          0.80163115	         10.10514387	
          1.65000000	        -24.53217601	         16.38348721	        -12.38300324	          6.92189490	         31.14173523	         -1.44076779	         32.98531787	          0.80140751	         10.01976628	
          1.66000000	        -24.54138622	         16.40851381	        -12.40025219	          6.93541474	         31.16130309	         -1.44406393	         33.03845577	          0.79761880	         10.01090354	
          1.67000000	        -24.54918697	         16.43391400	        -12.41666946	          6.94969636	         31.17909093	         -1.44649480	         32.99289062	          0.79048710	         10.07940893	
          1.68000000	        -24.55534423	         16.45925016	        -12.43183850	          6.96451351	         31.19473473	         -1.44798270	         32.84689236	          0.78022346	         10.22640075	
          1.69000000	        -24.55957419	         16.48400138	        -12.44525164	          6.97959718	         31.20780174	         -1.44843579	         32.59891591	          0.76702632	         10.45324187	
          1.70000000	        -24.56153405	         16.50756670	        -12.45629514	          6.99463881	         31.21779008	         -1.44774633	         32.24767007	          0.75108397	         10.76144948	
          1.71000000	        -24.56082043	         16.52927582	        -12.46424831	          7.00929700	         31.22413441	         -1.44579077	         31.79224405	          0.73258109	         11.15252790	
          1.72000000	        -24.55697801	         16.54840805	        -12.46830064	          7.02320800	         31.22621938	         -1.44243244	         31.23229532	          0.71170883	         11.62772408	
          1.73000000	        -24.54952030	         16.56422007	        -12.46758974	          7.03599966	         31.22340228	         -1.43752728	         30.56829762	          0.68867764	         12.18771199	
          1.74000000	        -24.53796312	         16.57598171	        -12.46126048	          7.04730832	         31.21504505	         -1.43093321	         29.80184294	          0.66373129	         12.83221848	
          1.75000000	        -24.52186987	         16.58301768	        -12.44854298	          7.05679748	         31.20055491	         -1.42252266	         28.93598472	          0.63716094	         13.55960921	
          1.76000000	        -24.50090556	         16.58475233	        -12.42884366	          7.06417652	         31.17943134	         -1.41219787	         27.97560267	          0.60931740	         14.36645958	
          1.77000000	        -24.47489506	         16.58075271	        -12.40184067	          7.06921734	         31.15131599	         -1.39990746	         26.92776032	          0.58061983	         15.24714396	
          1.78000000	        -24.44387941	         16.57076521	        -12.36757303	          7.07176676	         31.11604089	         -1.38566297	         25.80201386	          0.55155883	         16.19348850	
          1.79000000	        -24.40816352	         16.55474054	        -12.32651199	          7.07175261	         31.07366958	         -1.36955309	         24.61061694	          0.52269222	         17.19454639	
          1.80000000	        -24.36834854	         16.53284304	        -12.27960454	          7.06918227	         31.02452485	         -1.35175340	         23.36855480	          0.49463241	         18.23656487	
          1.81000000	        -24.32534330	         16.50544162	        -12.22828222	          7.06413351	         30.96919726	         -1.33252968	         22.09334032	          0.46802515	         19.30321347	
          1.82000000	        -24.28035084	         16.47308168	        -12.17443099	          7.05673825	         30.90852939	         -1.31223275	         20.80451713	          0.44352070	         20.37612839	
          1.83000000	        -24.23482755	         16.43643829	        -12.12032077	          7.04716052	         30.84357295	         -1.29128439	         19.52284574	          0.42174002	         21.43579458	
          1.84000000	        -24.19041526	         16.39625292	        -12.06849549	          7.03556988	         30.77551933	         -1.27015462	         18.26920143	          0.40323966	         22.46272923	
          1.85000000	        -24.14885065	         16.35325758	        -12.02162968	          7.02211157	         30.70560967	         -1.24933299	         17.06328754	          0.38847979	         23.43884944	
          1.86000000	        -24.11186167	         16.30809258	        -11.98236312	          7.00687465	         30.63503672	         -1.22929841	         15.92234180	          0.37779926	         24.34882881	
          1.87000000	        -24.08106478	         16.26122688	        -11.95313225	          6.98986025	         30.56485387	         -1.21049280	         14.86004230	          0.37140150	         25.18121940	
          1.88000000	        -24.05787648	         16.21289056	        -11.93602003	          6.97095363	         30.49590314	         -1.19330184	         13.88577616	          0.36935486	         25.92916871	
          1.89000000	        -24.04344733	         16.16302575	        -11.93264085	          6.94990317	         30.42876598	         -1.17804321	         13.00433672	          0.37161014	         26.59066785	
          1.90000000	        -24.03862003	         16.11125728	        -11.94406650	          6.92630800	         30.36373419	         -1.16496023	         12.21601123	          0.37803669	         27.16837678	
          1.91000000	        -24.04390653	         16.05687883	        -11.97078773	          6.89961289	         30.30079361	         -1.15421789	         11.51695245	          0.38847611	         27.66914245	
          1.92000000	        -24.05947577	         15.99884708	        -12.01269832	          6.86910775	         30.23961192	         -1.14589790	         10.89971125	          0.40280906	         28.10334130	
